<?xml version="1.0" encoding="utf-8"?>
<COLLADA xmlns="http://www.collada.org/2005/11/COLLADASchema" version="1.4.1">
  <asset />
  <library_images>
    <image id="CmFillerObjectFC_BaseColor.491459821">
      <init_from>CmFillerObjectFC_BaseColor.491459821.png</init_from>
    </image>
    <image id="CmFillerObjectFC_MRA._407302197">
      <init_from>CmFillerObjectFC_MRA._407302197.png</init_from>
    </image>
    <image id="CmFillerObjectFC_Normal.846213365">
      <init_from>CmFillerObjectFC_Normal.846213365.png</init_from>
    </image>
    <image id="CmFillerObjectF_TapeC_BaseColor._700689075">
      <init_from>CmFillerObjectF_TapeC_BaseColor._700689075.png</init_from>
    </image>
    <image id="CmFillerObjectF_TapeC_MRA._336742484">
      <init_from>CmFillerObjectF_TapeC_MRA._336742484.png</init_from>
    </image>
    <image id="CmFillerObjectF_TapeC_Normal._1793728040">
      <init_from>CmFillerObjectF_TapeC_Normal._1793728040.png</init_from>
    </image>
  </library_images>
  <library_materials>
    <material id="CmFillerObjectFC">
      <instance_effect url="#Effect_CmFillerObjectFC" />
    </material>
    <material id="CmFillerObjectF_TapeC">
      <instance_effect url="#Effect_CmFillerObjectF_TapeC" />
    </material>
    <material id="CollisionC">
      <instance_effect url="#Effect_CollisionC" />
    </material>
  </library_materials>
  <library_effects>
    <effect id="Effect_CmFillerObjectFC">
      <profile_COMMON>
        <newparam sid="surface_CmFillerObjectFC-diffuse">
          <surface type="2D">
            <init_from>CmFillerObjectFC_BaseColor.491459821</init_from>
            <format>A8R8G8B8</format>
          </surface>
        </newparam>
        <newparam sid="sampler_CmFillerObjectFC-diffuse">
          <sampler2D>
            <source>surface_CmFillerObjectFC-diffuse</source>
            <wrap_s>WRAP</wrap_s>
            <wrap_t>WRAP</wrap_t>
          </sampler2D>
        </newparam>
        <newparam sid="surface_CmFillerObjectFC-bump">
          <surface type="2D">
            <init_from>CmFillerObjectFC_Normal.846213365</init_from>
            <format>A8R8G8B8</format>
          </surface>
        </newparam>
        <newparam sid="sampler_CmFillerObjectFC-bump">
          <sampler2D>
            <source>surface_CmFillerObjectFC-bump</source>
            <wrap_s>WRAP</wrap_s>
            <wrap_t>WRAP</wrap_t>
          </sampler2D>
        </newparam>
        <technique sid="common">
          <phong>
            <diffuse>
              <texture texture="sampler_CmFillerObjectFC-diffuse" texcoord="CHANNEL0" />
            </diffuse>
            <bump>
              <texture texture="sampler_CmFillerObjectFC-bump" texcoord="CHANNEL0" />
            </bump>
            <emission>
              <color sid="emission">0 0 0 1</color>
            </emission>
            <specular>
              <color sid="specular">0 0 0 1</color>
            </specular>
          </phong>
        </technique>
      </profile_COMMON>
    </effect>
    <effect id="Effect_CmFillerObjectF_TapeC">
      <profile_COMMON>
        <newparam sid="surface_CmFillerObjectF_TapeC-diffuse">
          <surface type="2D">
            <init_from>CmFillerObjectF_TapeC_BaseColor._700689075</init_from>
            <format>A8R8G8B8</format>
          </surface>
        </newparam>
        <newparam sid="sampler_CmFillerObjectF_TapeC-diffuse">
          <sampler2D>
            <source>surface_CmFillerObjectF_TapeC-diffuse</source>
            <wrap_s>WRAP</wrap_s>
            <wrap_t>WRAP</wrap_t>
          </sampler2D>
        </newparam>
        <newparam sid="surface_CmFillerObjectF_TapeC-bump">
          <surface type="2D">
            <init_from>CmFillerObjectF_TapeC_Normal._1793728040</init_from>
            <format>A8R8G8B8</format>
          </surface>
        </newparam>
        <newparam sid="sampler_CmFillerObjectF_TapeC-bump">
          <sampler2D>
            <source>surface_CmFillerObjectF_TapeC-bump</source>
            <wrap_s>WRAP</wrap_s>
            <wrap_t>WRAP</wrap_t>
          </sampler2D>
        </newparam>
        <technique sid="common">
          <phong>
            <diffuse>
              <texture texture="sampler_CmFillerObjectF_TapeC-diffuse" texcoord="CHANNEL0" />
            </diffuse>
            <bump>
              <texture texture="sampler_CmFillerObjectF_TapeC-bump" texcoord="CHANNEL0" />
            </bump>
            <emission>
              <color sid="emission">0 0 0 1</color>
            </emission>
            <specular>
              <color sid="specular">0 0 0 1</color>
            </specular>
          </phong>
        </technique>
      </profile_COMMON>
    </effect>
    <effect id="Effect_CollisionC">
      <profile_COMMON>
        <technique sid="common">
          <phong>
            <diffuse>
              <color sid="diffuse">1 1 1 1</color>
            </diffuse>
            <emission>
              <color sid="emission">0 0 0 1</color>
            </emission>
            <specular>
              <color sid="specular">0 0 0 1</color>
            </specular>
          </phong>
        </technique>
      </profile_COMMON>
    </effect>
  </library_effects>
  <library_geometries>
    <geometry id="CollisionM__CollisionC-mesh" name="CollisionM__CollisionC">
      <mesh>
        <source id="CollisionM__CollisionC-position">
          <float_array id="CollisionM__CollisionC-position-array" count="3">0 0 0</float_array>
          <technique_common>
            <accessor source="#CollisionM__CollisionC-position-array" count="1" stride="3">
              <param name="X" type="float" />
              <param name="Y" type="float" />
              <param name="Z" type="float" />
            </accessor>
          </technique_common>
        </source>
        <vertices id="CollisionM__CollisionC-vertex">
          <input semantic="POSITION" source="#CollisionM__CollisionC-position" />
        </vertices>
        <triangles material="CollisionC" count="1">
          <input semantic="VERTEX" source="#CollisionM__CollisionC-vertex" offset="0" />
          <p>0 0 0 </p>
        </triangles>
      </mesh>
    </geometry>
    <geometry id="pCube17__CmFillerObjectFC-mesh" name="pCube17__CmFillerObjectFC">
      <mesh>
        <source id="pCube17__CmFillerObjectFC-position">
          <float_array id="pCube17__CmFillerObjectFC-position-array" count="828">-0.9215029 1.850001 0.9215043 -0.9215029 1.878498 0.95 -0.95 1.878498 0.9215043 0.95 1.878498 0.9215043 0.9215032 1.878498 0.95 0.9215032 1.850001 0.9215043 -0.95 2.971503 0.9215043 -0.9215029 2.971503 0.95 -0.9215029 3 0.9215043 0.9215032 3 0.9215043 0.9215032 2.971503 0.95 0.95 2.971503 0.9215043 -0.95 2.971503 -0.9215029 -0.9215029 3 -0.9215029 -0.9215029 2.971503 -0.9499986 0.9215032 2.971503 -0.9499986 0.9215032 3 -0.9215029 0.95 2.971503 -0.9215029 -0.95 1.878498 -0.9215029 -0.9215029 1.878498 -0.9499986 -0.9215029 1.850001 -0.9215029 0.9215032 1.850001 -0.9215029 0.9215032 1.878498 -0.9499986 0.95 1.878498 -0.9215029 -0.9215029 0 0.9215048 -0.9215029 0.0284971 0.95 -0.95 0.0284971 0.9215048 0.95 0.0284971 0.9215048 0.9215032 0.0284971 0.95 0.9215032 0 0.9215048 -0.95 1.821503 0.9215048 -0.9215029 1.821503 0.95 -0.9215029 1.850001 0.9215048 0.9215032 1.850001 0.9215048 0.9215032 1.821503 0.95 0.95 1.821503 0.9215048 -0.95 1.821503 -0.9215029 -0.9215029 1.850001 -0.9215029 -0.9215029 1.821503 -0.9499986 0.9215032 1.821503 -0.9499986 0.9215032 1.850001 -0.9215029 0.95 1.821503 -0.9215029 -0.95 0.0284971 -0.9215029 -0.9215029 0.0284971 -0.9499986 -0.9215029 0 -0.9215029 0.9215032 0 -0.9215029 0.9215032 0.0284971 -0.9499986 0.95 0.0284971 -0.9215029 -0.9215029 1.850001 0.9215043 -0.95 1.878498 0.9215043 -0.9215029 1.850001 -0.9215029 -0.95 1.878498 -0.9215029 -0.9215029 1.878498 0.95 -0.9215029 1.850001 0.9215043 0.9215032 1.878498 0.95 0.9215032 1.850001 0.9215043 -0.95 1.878498 0.9215043 -0.9215029 1.878498 0.95 -0.95 2.971503 0.9215043 -0.9215029 2.971503 0.95 0.95 1.878498 0.9215043 0.9215032 1.850001 0.9215043 0.95 1.878498 -0.9215029 0.9215032 1.850001 -0.9215029 0.9215032 1.878498 0.95 0.95 1.878498 0.9215043 0.9215032 2.971503 0.95 0.95 2.971503 0.9215043 -0.95 2.971503 0.9215043 -0.9215029 3 0.9215043 -0.95 2.971503 -0.9215029 -0.9215029 3 -0.9215029 -0.9215029 3 0.9215043 -0.9215029 2.971503 0.95 0.9215032 3 0.9215043 0.9215032 2.971503 0.95 0.9215032 3 0.9215043 0.95 2.971503 0.9215043 0.9215032 3 -0.9215029 0.95 2.971503 -0.9215029 -0.95 2.971503 -0.9215029 -0.9215029 2.971503 -0.9499986 -0.95 1.878498 -0.9215029 -0.9215029 1.878498 -0.9499986 -0.9215029 2.971503 -0.9499986 -0.9215029 3 -0.9215029 0.9215032 2.971503 -0.9499986 0.9215032 3 -0.9215029 0.9215032 2.971503 -0.9499986 0.95 2.971503 -0.9215029 0.9215032 1.878498 -0.9499986 0.95 1.878498 -0.9215029 -0.9215029 1.850001 -0.9215029 -0.9215029 1.878498 -0.9499986 0.9215032 1.850001 -0.9215029 0.9215032 1.878498 -0.9499986 -0.9215029 1.878498 0.95 0.9215032 1.878498 0.95 -0.9215029 2.971503 0.95 0.9215032 2.971503 0.95 -0.9215029 3 0.9215043 0.9215032 3 0.9215043 -0.9215029 3 -0.9215029 0.9215032 3 -0.9215029 -0.9215029 2.971503 -0.9499986 0.9215032 2.971503 -0.9499986 -0.9215029 1.878498 -0.9499986 0.9215032 1.878498 -0.9499986 -0.9215029 1.850001 -0.9215029 0.9215032 1.850001 -0.9215029 -0.9215029 1.850001 0.9215043 0.9215032 1.850001 0.9215043 0.95 1.878498 0.9215043 0.95 1.878498 -0.9215029 0.95 2.971503 0.9215043 0.95 2.971503 -0.9215029 -0.95 1.878498 -0.9215029 -0.95 1.878498 0.9215043 -0.95 2.971503 -0.9215029 -0.95 2.971503 0.9215043 -0.9215029 0 0.9215048 -0.95 0.0284971 0.9215048 -0.9215029 0 -0.9215029 -0.95 0.0284971 -0.9215029 -0.9215029 0.0284971 0.95 -0.9215029 0 0.9215048 0.9215032 0.0284971 0.95 0.9215032 0 0.9215048 -0.95 0.0284971 0.9215048 -0.9215029 0.0284971 0.95 -0.95 1.821503 0.9215048 -0.9215029 1.821503 0.95 0.95 0.0284971 0.9215048 0.9215032 0 0.9215048 0.95 0.0284971 -0.9215029 0.9215032 0 -0.9215029 0.9215032 0.0284971 0.95 0.95 0.0284971 0.9215048 0.9215032 1.821503 0.95 0.95 1.821503 0.9215048 -0.95 1.821503 0.9215048 -0.9215029 1.850001 0.9215048 -0.95 1.821503 -0.9215029 -0.9215029 1.850001 -0.9215029 -0.9215029 1.850001 0.9215048 -0.9215029 1.821503 0.95 0.9215032 1.850001 0.9215048 0.9215032 1.821503 0.95 0.9215032 1.850001 0.9215048 0.95 1.821503 0.9215048 0.9215032 1.850001 -0.9215029 0.95 1.821503 -0.9215029 -0.95 1.821503 -0.9215029 -0.9215029 1.821503 -0.9499986 -0.95 0.0284971 -0.9215029 -0.9215029 0.0284971 -0.9499986 -0.9215029 1.821503 -0.9499986 -0.9215029 1.850001 -0.9215029 0.9215032 1.821503 -0.9499986 0.9215032 1.850001 -0.9215029 0.9215032 1.821503 -0.9499986 0.95 1.821503 -0.9215029 0.9215032 0.0284971 -0.9499986 0.95 0.0284971 -0.9215029 -0.9215029 0 -0.9215029 -0.9215029 0.0284971 -0.9499986 0.9215032 0 -0.9215029 0.9215032 0.0284971 -0.9499986 -0.9215029 0.0284971 0.95 0.9215032 0.0284971 0.95 -0.9215029 1.821503 0.95 0.9215032 1.821503 0.95 -0.9215029 1.850001 0.9215048 0.9215032 1.850001 0.9215048 -0.9215029 1.850001 -0.9215029 0.9215032 1.850001 -0.9215029 -0.9215029 1.821503 -0.9499986 0.9215032 1.821503 -0.9499986 -0.9215029 0.0284971 -0.9499986 0.9215032 0.0284971 -0.9499986 0.95 0.0284971 0.9215048 0.95 0.0284971 -0.9215029 0.95 1.821503 0.9215048 0.95 1.821503 -0.9215029 -0.95 0.0284971 -0.9215029 -0.95 0.0284971 0.9215048 -0.95 1.821503 -0.9215029 -0.95 1.821503 0.9215048 -0.9304083 2.971503 0.9410951 -0.9215029 3 0.9215043 -0.9215029 2.987532 -0.9339698 -0.9215029 3 0.9215043 -0.9304083 2.971503 0.9410951 0.9215032 3 0.9215043 -0.9215029 0 0.9215048 0.9215032 0 0.9215048 0.9304084 0.0284971 0.9410952 0.9304084 0.0284971 0.9410952 0.9215032 0 0.9215048 0.9215032 0 -0.9215029 -0.9215029 1.850001 0.9215043 -0.9410946 1.878498 0.9304092 -0.9215029 1.850001 -0.9215029 -0.9215029 1.878498 -0.9499986 -0.9410946 1.878498 0.9304092 -0.9215029 1.850001 0.9215043 0.9304084 1.878498 0.9410951 0.9215032 1.850001 0.9215043 0.9304084 1.878498 0.9410951 0.9215032 1.850001 0.9215043 0.9410948 1.878498 -0.9304078 0.9215032 1.850001 -0.9215029 -0.9215029 1.850001 -0.9215029 -0.9215029 1.878498 -0.9499986 0.9215032 1.850001 -0.9215029 0.9410948 1.878498 -0.9304078 -0.9410946 1.878498 0.9304092 0.9304084 1.878498 0.9410951 -0.9304083 2.971503 0.9410951 0.9215032 3 0.9215043 -0.9215029 3 0.9215043 0.9215032 3 0.9215043 -0.9215029 2.987532 -0.9339698 0.9215032 3 -0.9215029 -0.9215029 2.987532 -0.9339698 0.9215032 3 -0.9215029 -0.9215029 1.878498 -0.9499986 0.9410948 1.878498 -0.9304078 -0.9215029 1.850001 -0.9215029 0.9215032 1.850001 -0.9215029 -0.9215029 1.850001 0.9215043 0.9215032 1.850001 0.9215043 0.9304084 1.878498 0.9410951 0.9410948 1.878498 -0.9304078 0.9215032 3 0.9215043 0.9215032 3 -0.9215029 -0.9215029 1.878498 -0.9499986 -0.9410946 1.878498 0.9304092 -0.9215029 2.987532 -0.9339698 -0.9304083 2.971503 0.9410951 -0.9304083 1.821503 0.9410952 -0.9215029 1.850001 0.9215043 -0.9215029 1.821503 -0.9499986 -0.9215029 1.850001 -0.9215029 -0.9215029 1.850001 0.9215043 -0.9304083 1.821503 0.9410952 0.9215032 1.850001 0.9215043 0.9410948 1.821503 0.9304096 0.9215032 1.850001 0.9215043 0.9410948 1.821503 0.9304096 0.9215032 1.850001 -0.9215029 0.9304084 1.821503 -0.9410937 -0.9215029 1.821503 -0.9499986 -0.9215029 1.850001 -0.9215029 0.9304084 1.821503 -0.9410937 0.9215032 1.850001 -0.9215029 -0.9215029 0 0.9215048 0.9304084 0.0284971 0.9410952 -0.9304083 1.821503 0.9410952 0.9410948 1.821503 0.9304096 -0.9215029 1.850001 0.9215043 0.9215032 1.850001 0.9215043 -0.9215029 1.850001 -0.9215029 0.9215032 1.850001 -0.9215029 -0.9215029 1.821503 -0.9499986 0.9304084 1.821503 -0.9410937 -0.9215029 0 -0.9215029 0.9215032 0 -0.9215029 0.9304084 0.0284971 0.9410952 0.9215032 0 -0.9215029 0.9410948 1.821503 0.9304096 0.9304084 1.821503 -0.9410937 -0.9215029 0 -0.9215029 -0.9215029 0 0.9215048 -0.9215029 1.821503 -0.9499986 -0.9304083 1.821503 0.9410952</float_array>
          <technique_common>
            <accessor source="#pCube17__CmFillerObjectFC-position-array" count="276" stride="3">
              <param name="X" type="float" />
              <param name="Y" type="float" />
              <param name="Z" type="float" />
            </accessor>
          </technique_common>
        </source>
        <source id="pCube17__CmFillerObjectFC-normal">
          <float_array id="pCube17__CmFillerObjectFC-normal-array" count="828">-0.5772994 -0.5772994 0.5772994 -0.5772994 -0.5772994 0.5772994 -0.5772994 -0.5772994 0.5772994 0.5772994 -0.5772994 0.5772994 0.5772994 -0.5772994 0.5772994 0.5772994 -0.5772994 0.5772994 -0.5772994 0.5772994 0.5772994 -0.5772994 0.5772994 0.5772994 -0.5772994 0.5772994 0.5772994 0.5772994 0.5772994 0.5772994 0.5772994 0.5772994 0.5772994 0.5772994 0.5772994 0.5772994 -0.5772994 0.5772994 -0.5772994 -0.5772994 0.5772994 -0.5772994 -0.5772994 0.5772994 -0.5772994 0.5772994 0.5772994 -0.5772994 0.5772994 0.5772994 -0.5772994 0.5772994 0.5772994 -0.5772994 -0.5772994 -0.5772994 -0.5772994 -0.5772994 -0.5772994 -0.5772994 -0.5772994 -0.5772994 -0.5772994 0.5772994 -0.5772994 -0.5772994 0.5772994 -0.5772994 -0.5772994 0.5772994 -0.5772994 -0.5772994 -0.5772994 -0.5772994 0.5772994 -0.5772994 -0.5772994 0.5772994 -0.5772994 -0.5772994 0.5772994 0.5772994 -0.5772994 0.5772994 0.5772994 -0.5772994 0.5772994 0.5772994 -0.5772994 0.5772994 -0.5772994 0.5772994 0.5772994 -0.5772994 0.5772994 0.5772994 -0.5772994 0.5772994 0.5772994 0.5772994 0.5772994 0.5772994 0.5772994 0.5772994 0.5772994 0.5772994 0.5772994 0.5772994 -0.5772994 0.5772994 -0.5772994 -0.5772994 0.5772994 -0.5772994 -0.5772994 0.5772994 -0.5772994 0.5772994 0.5772994 -0.5772994 0.5772994 0.5772994 -0.5772994 0.5772994 0.5772994 -0.5772994 -0.5772994 -0.5772994 -0.5772994 -0.5772994 -0.5772994 -0.5772994 -0.5772994 -0.5772994 -0.5772994 0.5772994 -0.5772994 -0.5772994 0.5772994 -0.5772994 -0.5772994 0.5772994 -0.5772994 -0.5772994 -0.7064579 -0.7064579 0 -0.7064579 -0.7064579 0 -0.7064579 -0.7064579 0 -0.7064579 -0.7064579 0 0 -0.7064579 0.7064579 0 -0.7064579 0.7064579 0 -0.7064579 0.7064579 0 -0.7064579 0.7064579 -0.7064579 0 0.7064579 -0.7064579 0 0.7064579 -0.7064579 0 0.7064579 -0.7064579 0 0.7064579 0.7064579 -0.7064579 0 0.7064579 -0.7064579 0 0.7064579 -0.7064579 0 0.7064579 -0.7064579 0 0.7064579 0 0.7064579 0.7064579 0 0.7064579 0.7064579 0 0.7064579 0.7064579 0 0.7064579 -0.7064579 0.7064579 0 -0.7064579 0.7064579 0 -0.7064579 0.7064579 0 -0.7064579 0.7064579 0 0 0.7064579 0.7064579 0 0.7064579 0.7064579 0 0.7064579 0.7064579 0 0.7064579 0.7064579 0.7064579 0.7064579 0 0.7064579 0.7064579 0 0.7064579 0.7064579 0 0.7064579 0.7064579 0 -0.7064579 0 -0.7064579 -0.7064579 0 -0.7064579 -0.7064579 0 -0.7064579 -0.7064579 0 -0.7064579 0 0.7064579 -0.7064579 0 0.7064579 -0.7064579 0 0.7064579 -0.7064579 0 0.7064579 -0.7064579 0.7064579 0 -0.7064579 0.7064579 0 -0.7064579 0.7064579 0 -0.7064579 0.7064579 0 -0.7064579 0 -0.7064579 -0.7064579 0 -0.7064579 -0.7064579 0 -0.7064579 -0.7064579 0 -0.7064579 -0.7064579 0 0 1 0 0 1 0 0 1 0 0 1 0 1 0 0 1 0 0 1 0 0 1 0 0 0 -1 0 0 -1 0 0 -1 0 0 -1 0 -1 0 0 -1 0 0 -1 0 0 -1 0 1 0 0 1 0 0 1 0 0 1 0 0 -1 0 0 -1 0 0 -1 0 0 -1 0 0 -0.7064579 -0.7064579 0 -0.7064579 -0.7064579 0 -0.7064579 -0.7064579 0 -0.7064579 -0.7064579 0 0 -0.7064579 0.7064579 0 -0.7064579 0.7064579 0 -0.7064579 0.7064579 0 -0.7064579 0.7064579 -0.7064579 0 0.7064579 -0.7064579 0 0.7064579 -0.7064579 0 0.7064579 -0.7064579 0 0.7064579 0.7064579 -0.7064579 0 0.7064579 -0.7064579 0 0.7064579 -0.7064579 0 0.7064579 -0.7064579 0 0.7064579 0 0.7064579 0.7064579 0 0.7064579 0.7064579 0 0.7064579 0.7064579 0 0.7064579 -0.7064579 0.7064579 0 -0.7064579 0.7064579 0 -0.7064579 0.7064579 0 -0.7064579 0.7064579 0 0 0.7064579 0.7064579 0 0.7064579 0.7064579 0 0.7064579 0.7064579 0 0.7064579 0.7064579 0.7064579 0.7064579 0 0.7064579 0.7064579 0 0.7064579 0.7064579 0 0.7064579 0.7064579 0 -0.7064579 0 -0.7064579 -0.7064579 0 -0.7064579 -0.7064579 0 -0.7064579 -0.7064579 0 -0.7064579 0 0.7064579 -0.7064579 0 0.7064579 -0.7064579 0 0.7064579 -0.7064579 0 0.7064579 -0.7064579 0.7064579 0 -0.7064579 0.7064579 0 -0.7064579 0.7064579 0 -0.7064579 0.7064579 0 -0.7064579 0 -0.7064579 -0.7064579 0 -0.7064579 -0.7064579 0 -0.7064579 -0.7064579 0 -0.7064579 -0.7064579 0 0 1 0 0 1 0 0 1 0 0 1 0 1 0 0 1 0 0 1 0 0 1 0 0 0 -1 0 0 -1 0 0 -1 0 0 -1 1 0 0 1 0 0 1 0 0 1 0 0 -1 0 0 -1 0 0 -1 0 0 -1 0 0 -0.9549902 0.297456 -0.001956947 -0.9549902 0.297456 -0.001956947 -0.9549902 0.297456 -0.001956947 0 0.5655577 0.8238748 0 0.5655577 0.8238748 0 0.5655577 0.8238748 0 -0.5655577 0.8238748 0 -0.5655577 0.8238748 0 -0.5655577 0.8238748 0.9549902 -0.297456 0 0.9549902 -0.297456 0 0.9549902 -0.297456 0 -0.8238748 -0.5655577 0 -0.8277887 -0.5616438 0 -1 -0.01565558 -0.009784736 -1 0 -0.009784736 -0.005870841 -0.3013699 0.9530333 -0.005870841 -0.3052838 0.9530333 0 -0.5636008 0.8258317 0 -0.5655577 0.8238748 0.9530333 -0.3013699 0.005870841 0.9530333 -0.3052838 0.005870841 0.8258317 -0.5636008 0 0.8238748 -0.5655577 0 0 -0.7064579 -0.7064579 0 -0.704501 -0.7103718 0.009784736 -0.3111546 -0.9510763 0.009784736 -0.3052838 -0.9530333 -0.005870841 -0.009784736 1 0.005870841 0.007827789 1 0 0 1 0.009784736 0.01761252 1 0 1 -0.005870841 -0.003913894 1 -0.003913894 -0.003913894 1 -0.003913894 -0.005870841 1 0 0.005870841 0.01369863 -1 0.009784736 0.009784736 -1 0.007827789 0.01174168 -1 0.009784736 0.007827789 -1 0 -1 0 0 -1 0 0 -1 0 0 -1 0 1 0.007827789 0.005870841 1 0.01369863 0.001956947 1 0.01174168 0.003913894 1 0.01761252 0 -1 0 -0.009784736 -1 0.005870841 -0.005870841 -1 0.003913894 -0.007827789 -1 0.009784736 -0.003913894 -0.9549902 0.295499 -0.003913894 -0.9549902 0.2935421 -0.003913894 -1 -0.001956947 -0.001956947 -1 0 0 0 0.5655577 0.8238748 0 0.5636008 0.8258317 0.005870841 0.3052838 0.9530333 0.005870841 0.3013699 0.9530333 0.8238748 0.5655577 0 0.8258317 0.5636008 0 0.9530333 0.3052838 -0.005870841 0.9530333 0.3013699 -0.005870841 0.003913894 0.7064579 -0.7064579 0.003913894 0.7064579 -0.7084149 0 0.5694716 -0.8219178 0 0.5655577 -0.8238748 -0.009784736 -0.01174168 1 -0.001956947 -0.001956947 1 -0.001956947 -0.001956947 1 0.005870841 0.005870841 1 0 1 0 0 1 0 0 1 0 0 1 0 0.003913894 -0.01565558 -1 0.001956947 -0.01369863 -1 0.001956947 -0.01369863 -1 0 -0.009784736 -1 1 -0.005870841 -0.003913894 1 -0.005870841 -0.005870841 1 -0.005870841 -0.005870841 1 -0.005870841 -0.005870841 -1 0 0 -1 -0.001956947 -0.001956947 -1 -0.001956947 -0.001956947 -1 -0.003913894 -0.003913894</float_array>
          <technique_common>
            <accessor source="#pCube17__CmFillerObjectFC-normal-array" count="276" stride="3">
              <param name="X" type="float" />
              <param name="Y" type="float" />
              <param name="Z" type="float" />
            </accessor>
          </technique_common>
        </source>
        <source id="pCube17__CmFillerObjectFC-color">
          <float_array id="pCube17__CmFillerObjectFC-color-array" count="1104">0.4156863 0.3333333 0.282353 1 0.4156863 0.3333333 0.282353 1 0.4156863 0.3333333 0.282353 1 0.4156863 0.3333333 0.282353 1 0.4156863 0.3333333 0.282353 1 0.4156863 0.3333333 0.282353 1 0.4156863 0.3333333 0.282353 1 0.4156863 0.3333333 0.282353 1 0.4156863 0.3333333 0.282353 1 0.4156863 0.3333333 0.282353 1 0.4156863 0.3333333 0.282353 1 0.4156863 0.3333333 0.282353 1 0.4156863 0.3333333 0.282353 1 0.4156863 0.3333333 0.282353 1 0.4156863 0.3333333 0.282353 1 0.4156863 0.3333333 0.282353 1 0.4156863 0.3333333 0.282353 1 0.4156863 0.3333333 0.282353 1 0.4156863 0.3333333 0.282353 1 0.4156863 0.3333333 0.282353 1 0.4156863 0.3333333 0.282353 1 0.4156863 0.3333333 0.282353 1 0.4156863 0.3333333 0.282353 1 0.4156863 0.3333333 0.282353 1 0.4156863 0.3333333 0.282353 1 0.4156863 0.3333333 0.282353 1 0.4156863 0.3333333 0.282353 1 0.4156863 0.3333333 0.282353 1 0.4156863 0.3333333 0.282353 1 0.4156863 0.3333333 0.282353 1 0.4156863 0.3333333 0.282353 1 0.4156863 0.3333333 0.282353 1 0.4156863 0.3333333 0.282353 1 0.4156863 0.3333333 0.282353 1 0.4156863 0.3333333 0.282353 1 0.4156863 0.3333333 0.282353 1 0.4156863 0.3333333 0.282353 1 0.4156863 0.3333333 0.282353 1 0.4156863 0.3333333 0.282353 1 0.4156863 0.3333333 0.282353 1 0.4156863 0.3333333 0.282353 1 0.4156863 0.3333333 0.282353 1 0.4156863 0.3333333 0.282353 1 0.4156863 0.3333333 0.282353 1 0.4156863 0.3333333 0.282353 1 0.4156863 0.3333333 0.282353 1 0.4156863 0.3333333 0.282353 1 0.4156863 0.3333333 0.282353 1 0.4156863 0.3333333 0.282353 1 0.4156863 0.3333333 0.282353 1 0.4156863 0.3333333 0.282353 1 0.4156863 0.3333333 0.282353 1 0.4156863 0.3333333 0.282353 1 0.4156863 0.3333333 0.282353 1 0.4156863 0.3333333 0.282353 1 0.4156863 0.3333333 0.282353 1 0.4156863 0.3333333 0.282353 1 0.4156863 0.3333333 0.282353 1 0.4156863 0.3333333 0.282353 1 0.4156863 0.3333333 0.282353 1 0.4156863 0.3333333 0.282353 1 0.4156863 0.3333333 0.282353 1 0.4156863 0.3333333 0.282353 1 0.4156863 0.3333333 0.282353 1 0.4156863 0.3333333 0.282353 1 0.4156863 0.3333333 0.282353 1 0.4156863 0.3333333 0.282353 1 0.4156863 0.3333333 0.282353 1 0.4156863 0.3333333 0.282353 1 0.4156863 0.3333333 0.282353 1 0.4156863 0.3333333 0.282353 1 0.4156863 0.3333333 0.282353 1 0.4156863 0.3333333 0.282353 1 0.4156863 0.3333333 0.282353 1 0.4156863 0.3333333 0.282353 1 0.4156863 0.3333333 0.282353 1 0.4156863 0.3333333 0.282353 1 0.4156863 0.3333333 0.282353 1 0.4156863 0.3333333 0.282353 1 0.4156863 0.3333333 0.282353 1 0.4156863 0.3333333 0.282353 1 0.4156863 0.3333333 0.282353 1 0.4156863 0.3333333 0.282353 1 0.4156863 0.3333333 0.282353 1 0.4156863 0.3333333 0.282353 1 0.4156863 0.3333333 0.282353 1 0.4156863 0.3333333 0.282353 1 0.4156863 0.3333333 0.282353 1 0.4156863 0.3333333 0.282353 1 0.4156863 0.3333333 0.282353 1 0.4156863 0.3333333 0.282353 1 0.4156863 0.3333333 0.282353 1 0.4156863 0.3333333 0.282353 1 0.4156863 0.3333333 0.282353 1 0.4156863 0.3333333 0.282353 1 0.4156863 0.3333333 0.282353 1 0.4156863 0.3333333 0.282353 1 0.4156863 0.3333333 0.282353 1 0.4156863 0.3333333 0.282353 1 0.4156863 0.3333333 0.282353 1 0.4156863 0.3333333 0.282353 1 0.4156863 0.3333333 0.282353 1 0.4156863 0.3333333 0.282353 1 0.4156863 0.3333333 0.282353 1 0.4156863 0.3333333 0.282353 1 0.4156863 0.3333333 0.282353 1 0.4156863 0.3333333 0.282353 1 0.4156863 0.3333333 0.282353 1 0.4156863 0.3333333 0.282353 1 0.4156863 0.3333333 0.282353 1 0.4156863 0.3333333 0.282353 1 0.4156863 0.3333333 0.282353 1 0.4156863 0.3333333 0.282353 1 0.4156863 0.3333333 0.282353 1 0.4156863 0.3333333 0.282353 1 0.4156863 0.3333333 0.282353 1 0.4156863 0.3333333 0.282353 1 0.4156863 0.3333333 0.282353 1 0.4156863 0.3333333 0.282353 1 0.4156863 0.3333333 0.282353 1 0.4156863 0.3333333 0.282353 1 0.4156863 0.3333333 0.282353 1 0.4156863 0.3333333 0.282353 1 0.4156863 0.3333333 0.282353 1 0.4156863 0.3333333 0.282353 1 0.4156863 0.3333333 0.282353 1 0.4156863 0.3333333 0.282353 1 0.4156863 0.3333333 0.282353 1 0.4156863 0.3333333 0.282353 1 0.4156863 0.3333333 0.282353 1 0.4156863 0.3333333 0.282353 1 0.4156863 0.3333333 0.282353 1 0.4156863 0.3333333 0.282353 1 0.4156863 0.3333333 0.282353 1 0.4156863 0.3333333 0.282353 1 0.4156863 0.3333333 0.282353 1 0.4156863 0.3333333 0.282353 1 0.4156863 0.3333333 0.282353 1 0.4156863 0.3333333 0.282353 1 0.4156863 0.3333333 0.282353 1 0.4156863 0.3333333 0.282353 1 0.4156863 0.3333333 0.282353 1 0.4156863 0.3333333 0.282353 1 0.4156863 0.3333333 0.282353 1 0.4156863 0.3333333 0.282353 1 0.4156863 0.3333333 0.282353 1 0.4156863 0.3333333 0.282353 1 0.4156863 0.3333333 0.282353 1 0.4156863 0.3333333 0.282353 1 0.4156863 0.3333333 0.282353 1 0.4156863 0.3333333 0.282353 1 0.4156863 0.3333333 0.282353 1 0.4156863 0.3333333 0.282353 1 0.4156863 0.3333333 0.282353 1 0.4156863 0.3333333 0.282353 1 0.4156863 0.3333333 0.282353 1 0.4156863 0.3333333 0.282353 1 0.4156863 0.3333333 0.282353 1 0.4156863 0.3333333 0.282353 1 0.4156863 0.3333333 0.282353 1 0.4156863 0.3333333 0.282353 1 0.4156863 0.3333333 0.282353 1 0.4156863 0.3333333 0.282353 1 0.4156863 0.3333333 0.282353 1 0.4156863 0.3333333 0.282353 1 0.4156863 0.3333333 0.282353 1 0.4156863 0.3333333 0.282353 1 0.4156863 0.3333333 0.282353 1 0.4156863 0.3333333 0.282353 1 0.4156863 0.3333333 0.282353 1 0.4156863 0.3333333 0.282353 1 0.4156863 0.3333333 0.282353 1 0.4156863 0.3333333 0.282353 1 0.4156863 0.3333333 0.282353 1 0.4156863 0.3333333 0.282353 1 0.4156863 0.3333333 0.282353 1 0.4156863 0.3333333 0.282353 1 0.4156863 0.3333333 0.282353 1 0.4156863 0.3333333 0.282353 1 0.4156863 0.3333333 0.282353 1 0.4156863 0.3333333 0.282353 1 0.4156863 0.3333333 0.282353 1 0.4156863 0.3333333 0.282353 1 0.4156863 0.3333333 0.282353 1 0.4156863 0.3333333 0.282353 1 0.4156863 0.3333333 0.282353 1 0.4156863 0.3333333 0.282353 1 0.4156863 0.3333333 0.282353 1 0.4156863 0.3333333 0.282353 1 0.4156863 0.3333333 0.282353 1 0.4156863 0.3333333 0.282353 1 0.4156863 0.3333333 0.282353 1 0.4156863 0.3333333 0.282353 1 0.4156863 0.3333333 0.282353 1 0.4156863 0.3333333 0.282353 1 0.4156863 0.3333333 0.282353 1 0.4156863 0.3333333 0.282353 1 0.4156863 0.3333333 0.282353 1 0.4156863 0.3333333 0.282353 1 0.4156863 0.3333333 0.282353 1 0.4156863 0.3333333 0.282353 1 0.4156863 0.3333333 0.282353 1 0.4156863 0.3333333 0.282353 1 0.4156863 0.3333333 0.282353 1 0.4156863 0.3333333 0.282353 1 0.4156863 0.3333333 0.282353 1 0.4156863 0.3333333 0.282353 1 0.4156863 0.3333333 0.282353 1 0.4156863 0.3333333 0.282353 1 0.4156863 0.3333333 0.282353 1 0.4156863 0.3333333 0.282353 1 0.4156863 0.3333333 0.282353 1 0.4156863 0.3333333 0.282353 1 0.4156863 0.3333333 0.282353 1 0.4156863 0.3333333 0.282353 1 0.4156863 0.3333333 0.282353 1 0.4156863 0.3333333 0.282353 1 0.4156863 0.3333333 0.282353 1 0.4156863 0.3333333 0.282353 1 0.4156863 0.3333333 0.282353 1 0.4156863 0.3333333 0.282353 1 0.4156863 0.3333333 0.282353 1 0.4156863 0.3333333 0.282353 1 0.4156863 0.3333333 0.282353 1 0.4156863 0.3333333 0.282353 1 0.4156863 0.3333333 0.282353 1 0.4156863 0.3333333 0.282353 1 0.4156863 0.3333333 0.282353 1 0.4156863 0.3333333 0.282353 1 0.4156863 0.3333333 0.282353 1 0.4156863 0.3333333 0.282353 1 0.4156863 0.3333333 0.282353 1 0.4156863 0.3333333 0.282353 1 0.4156863 0.3333333 0.282353 1 0.4156863 0.3333333 0.282353 1 0.4156863 0.3333333 0.282353 1 0.4156863 0.3333333 0.282353 1 0.4156863 0.3333333 0.282353 1 0.4156863 0.3333333 0.282353 1 0.4156863 0.3333333 0.282353 1 0.4156863 0.3333333 0.282353 1 0.4156863 0.3333333 0.282353 1 0.4156863 0.3333333 0.282353 1 0.4156863 0.3333333 0.282353 1 0.4156863 0.3333333 0.282353 1 0.4156863 0.3333333 0.282353 1 0.4156863 0.3333333 0.282353 1 0.4156863 0.3333333 0.282353 1 0.4156863 0.3333333 0.282353 1 0.4156863 0.3333333 0.282353 1 0.4156863 0.3333333 0.282353 1 0.4156863 0.3333333 0.282353 1 0.4156863 0.3333333 0.282353 1 0.4156863 0.3333333 0.282353 1 0.4156863 0.3333333 0.282353 1 0.4156863 0.3333333 0.282353 1 0.4156863 0.3333333 0.282353 1 0.4156863 0.3333333 0.282353 1 0.4156863 0.3333333 0.282353 1 0.4156863 0.3333333 0.282353 1 0.4156863 0.3333333 0.282353 1 0.4156863 0.3333333 0.282353 1 0.4156863 0.3333333 0.282353 1 0.4156863 0.3333333 0.282353 1 0.4156863 0.3333333 0.282353 1 0.4156863 0.3333333 0.282353 1 0.4156863 0.3333333 0.282353 1 0.4156863 0.3333333 0.282353 1 0.4156863 0.3333333 0.282353 1 0.4156863 0.3333333 0.282353 1 0.4156863 0.3333333 0.282353 1 0.4156863 0.3333333 0.282353 1 0.4156863 0.3333333 0.282353 1 0.4156863 0.3333333 0.282353 1 0.4156863 0.3333333 0.282353 1 0.4156863 0.3333333 0.282353 1</float_array>
          <technique_common>
            <accessor source="#pCube17__CmFillerObjectFC-color-array" count="276" stride="4">
              <param name="R" type="float" />
              <param name="G" type="float" />
              <param name="B" type="float" />
              <param name="A" type="float" />
            </accessor>
          </technique_common>
        </source>
        <source id="pCube17__CmFillerObjectFC-texcoord">
          <float_array id="pCube17__CmFillerObjectFC-texcoord-array" count="552">0.2150607 0.2283055 0.2161593 0.2322575 0.2139773 0.2322575 0.3995117 0.2321965 0.3973144 0.2321965 0.3984131 0.2282292 0.2139773 0.3385214 0.2161593 0.3385214 0.2150607 0.3424735 0.3984131 0.3425498 0.3973144 0.3385825 0.3995117 0.3385825 0.03277638 0.3392996 0.03274586 0.3432822 0.02879377 0.3393759 0.5828641 0.3385062 0.5817655 0.3424582 0.5806668 0.3385062 0.03277638 0.2314793 0.02879377 0.2313878 0.03274586 0.2274967 0.5817655 0.2283207 0.5828641 0.2322575 0.5806668 0.2322728 0.2116884 0.02192724 0.2130007 0.02590984 0.2103761 0.02590984 0.3959869 0.02581829 0.3933623 0.02583355 0.3946746 0.02185094 0.2103761 0.2012665 0.2130159 0.2012665 0.2116884 0.2052491 0.3946593 0.2053407 0.3933471 0.2013428 0.3959869 0.2013581 0.03012131 0.2012208 0.03007553 0.2052034 0.02619974 0.201236 0.5790493 0.2014039 0.5777371 0.2053865 0.5764248 0.2014039 0.03012131 0.02595562 0.02619974 0.02594036 0.03007553 0.02198827 0.5777371 0.02178991 0.5790493 0.02577251 0.5764096 0.02577251 0.2150607 0.2283055 0.2139773 0.2322575 0.03274586 0.2274967 0.03277638 0.2314793 0.2161593 0.2322575 0.2150607 0.2283055 0.3973144 0.2321965 0.3984131 0.2282292 0.2139773 0.2322575 0.2161593 0.2322575 0.2139773 0.3385214 0.2161593 0.3385214 0.3995117 0.2321965 0.3984131 0.2282292 0.5806668 0.2322728 0.5817655 0.2283207 0.3973144 0.2321965 0.3995117 0.2321965 0.3973144 0.3385825 0.3995117 0.3385825 0.2139773 0.3385214 0.2150607 0.3424735 0.03277638 0.3392996 0.03274586 0.3432822 0.2150607 0.3424735 0.2161593 0.3385214 0.3984131 0.3425498 0.3973144 0.3385825 0.3984131 0.3425498 0.3995117 0.3385825 0.5817655 0.3424582 0.5806668 0.3385062 0.03277638 0.3392996 0.02879377 0.3393759 0.03277638 0.2314793 0.02879377 0.2313878 0.7640498 0.3392844 0.7640345 0.343267 0.5828641 0.3385062 0.5817655 0.3424582 0.5828641 0.3385062 0.5806668 0.3385062 0.5828641 0.2322575 0.5806668 0.2322728 0.7640345 0.227512 0.7640498 0.2314946 0.5817655 0.2283207 0.5828641 0.2322575 0.2161593 0.2322575 0.3973144 0.2321965 0.2161593 0.3385214 0.3973144 0.3385825 0.8001679 0.4252079 0.980148 0.4252079 0.8001679 0.6051881 0.980148 0.6051881 0.7640498 0.3392844 0.5828641 0.3385062 0.7640498 0.2314946 0.5828641 0.2322575 0.8004883 0.405951 0.9804837 0.405951 0.8004883 0.2259709 0.9804837 0.2259709 0.3995117 0.2321965 0.5806668 0.2322728 0.3995117 0.3385825 0.5806668 0.3385062 0.03277638 0.2314793 0.2139773 0.2322575 0.03277638 0.3392996 0.2139773 0.3385214 0.2116884 0.02192724 0.2103761 0.02590984 0.03007553 0.02198827 0.03012131 0.02595562 0.2130007 0.02590984 0.2116884 0.02192724 0.3933623 0.02583355 0.3946746 0.02185094 0.2103761 0.02590984 0.2130007 0.02590984 0.2103761 0.2012665 0.2130159 0.2012665 0.3959869 0.02581829 0.3946746 0.02185094 0.5764096 0.02577251 0.5777371 0.02178991 0.3933623 0.02583355 0.3959869 0.02581829 0.3933471 0.2013428 0.3959869 0.2013581 0.2103761 0.2012665 0.2116884 0.2052491 0.03012131 0.2012208 0.03007553 0.2052034 0.2116884 0.2052491 0.2130159 0.2012665 0.3946593 0.2053407 0.3933471 0.2013428 0.3946593 0.2053407 0.3959869 0.2013581 0.5777371 0.2053865 0.5764248 0.2014039 0.03012131 0.2012208 0.02619974 0.201236 0.03012131 0.02595562 0.02619974 0.02594036 0.7595941 0.2014344 0.7595941 0.205417 0.5790493 0.2014039 0.5777371 0.2053865 0.5790493 0.2014039 0.5764248 0.2014039 0.5790493 0.02577251 0.5764096 0.02577251 0.7595941 0.02175939 0.7595941 0.02575725 0.5777371 0.02178991 0.5790493 0.02577251 0.2130007 0.02590984 0.3933623 0.02583355 0.2130159 0.2012665 0.3933471 0.2013428 0.7935149 0.02650493 0.9734951 0.02650493 0.7935149 0.2064851 0.9734951 0.2064851 0.7595941 0.2014344 0.5790493 0.2014039 0.7595941 0.02575725 0.5790493 0.02577251 0.3959869 0.02581829 0.5764096 0.02577251 0.3959869 0.2013581 0.5764248 0.2014039 0.03012131 0.02595562 0.2103761 0.02590984 0.03012131 0.2012208 0.2103761 0.2012665 0.2154727 0.3385214 0.2150607 0.3424735 0.03102159 0.3415732 0.2150607 0.3424735 0.2154727 0.3385214 0.3984131 0.3425498 0.2116884 0.02200353 0.3946746 0.02200353 0.3941863 0.02583355 0.3941863 0.02583355 0.3946746 0.02200353 0.5777371 0.02200353 0.2150607 0.2283055 0.2146639 0.2322575 0.03274586 0.2274967 0.02879377 0.2313878 0.2146639 0.2322575 0.2150607 0.2283055 0.3980011 0.2321965 0.3984131 0.2282292 0.3980011 0.2321965 0.3984131 0.2282292 0.5813535 0.2322728 0.5817655 0.2283207 0.7640345 0.227512 0.7640498 0.2314946 0.5817655 0.2283207 0.5813535 0.2322728 0.2146639 0.2322575 0.3980011 0.2321965 0.2154727 0.3385214 0.3984131 0.3425498 0.8001679 0.4252079 0.9799954 0.4252079 0.8001679 0.605005 0.9799954 0.605005 0.7640345 0.3415274 0.5817655 0.3424582 0.7640498 0.2314946 0.5813535 0.2322728 0.8004883 0.405951 0.9799954 0.405951 0.8004883 0.2259709 0.9799954 0.2259709 0.3980011 0.2321965 0.5813535 0.2322728 0.3984131 0.3425498 0.5817655 0.3424582 0.02879377 0.2313878 0.2146639 0.2322575 0.03102159 0.3415732 0.2154727 0.3385214 0.212192 0.2012665 0.2116884 0.2052491 0.02619974 0.201236 0.03007553 0.2052034 0.2116884 0.2052491 0.212192 0.2012665 0.3946593 0.2053407 0.3951629 0.2013581 0.3946593 0.2053407 0.3951629 0.2013581 0.5777371 0.2053865 0.5782406 0.2014039 0.7595941 0.2014344 0.7595941 0.205417 0.5782406 0.2014039 0.5777371 0.2053865 0.2116884 0.02200353 0.3941863 0.02583355 0.212192 0.2012665 0.3951629 0.2013581 0.7935149 0.02650493 0.9734951 0.02650493 0.7935149 0.2064851 0.9734951 0.2064851 0.7595941 0.2014344 0.5782406 0.2014039 0.7595941 0.02200353 0.5777371 0.02200353 0.3941863 0.02583355 0.5777371 0.02200353 0.3951629 0.2013581 0.5782406 0.2014039 0.03007553 0.02200353 0.2116884 0.02200353 0.02619974 0.201236 0.212192 0.2012665</float_array>
          <technique_common>
            <accessor source="#pCube17__CmFillerObjectFC-texcoord-array" count="276" stride="2">
              <param name="S" type="float" />
              <param name="T" type="float" />
            </accessor>
          </technique_common>
        </source>
        <vertices id="pCube17__CmFillerObjectFC-vertex">
          <input semantic="POSITION" source="#pCube17__CmFillerObjectFC-position" />
        </vertices>
        <triangles material="CmFillerObjectFC" count="86">
          <input semantic="VERTEX" source="#pCube17__CmFillerObjectFC-vertex" offset="0" />
          <input semantic="NORMAL" source="#pCube17__CmFillerObjectFC-normal" offset="1" />
          <input semantic="COLOR" source="#pCube17__CmFillerObjectFC-color" offset="2" set="0" />
          <input semantic="TEXCOORD" source="#pCube17__CmFillerObjectFC-texcoord" offset="3" set="0" />
          <p>0 0 0 0 1 1 1 1 2 2 2 2 3 3 3 3 4 4 4 4 5 5 5 5 6 6 6 6 7 7 7 7 8 8 8 8 9 9 9 9 10 10 10 10 11 11 11 11 12 12 12 12 13 13 13 13 14 14 14 14 15 15 15 15 16 16 16 16 17 17 17 17 18 18 18 18 19 19 19 19 20 20 20 20 21 21 21 21 22 22 22 22 23 23 23 23 24 24 24 24 25 25 25 25 26 26 26 26 27 27 27 27 28 28 28 28 29 29 29 29 30 30 30 30 31 31 31 31 32 32 32 32 33 33 33 33 34 34 34 34 35 35 35 35 36 36 36 36 37 37 37 37 38 38 38 38 39 39 39 39 40 40 40 40 41 41 41 41 42 42 42 42 43 43 43 43 44 44 44 44 45 45 45 45 46 46 46 46 47 47 47 47 48 48 48 48 49 49 49 49 50 50 50 50 49 49 49 49 51 51 51 51 50 50 50 50 52 52 52 52 53 53 53 53 54 54 54 54 53 53 53 53 55 55 55 55 54 54 54 54 56 56 56 56 57 57 57 57 58 58 58 58 57 57 57 57 59 59 59 59 58 58 58 58 60 60 60 60 61 61 61 61 62 62 62 62 61 61 61 61 63 63 63 63 62 62 62 62 64 64 64 64 65 65 65 65 66 66 66 66 65 65 65 65 67 67 67 67 66 66 66 66 68 68 68 68 69 69 69 69 70 70 70 70 69 69 69 69 71 71 71 71 70 70 70 70 72 72 72 72 73 73 73 73 74 74 74 74 73 73 73 73 75 75 75 75 74 74 74 74 76 76 76 76 77 77 77 77 78 78 78 78 77 77 77 77 79 79 79 79 78 78 78 78 80 80 80 80 81 81 81 81 82 82 82 82 81 81 81 81 83 83 83 83 82 82 82 82 84 84 84 84 85 85 85 85 86 86 86 86 85 85 85 85 87 87 87 87 86 86 86 86 88 88 88 88 89 89 89 89 90 90 90 90 89 89 89 89 91 91 91 91 90 90 90 90 92 92 92 92 93 93 93 93 94 94 94 94 93 93 93 93 95 95 95 95 94 94 94 94 96 96 96 96 97 97 97 97 98 98 98 98 97 97 97 97 99 99 99 99 98 98 98 98 100 100 100 100 101 101 101 101 102 102 102 102 101 101 101 101 103 103 103 103 102 102 102 102 104 104 104 104 105 105 105 105 106 106 106 106 105 105 105 105 107 107 107 107 106 106 106 106 108 108 108 108 109 109 109 109 110 110 110 110 109 109 109 109 111 111 111 111 110 110 110 110 112 112 112 112 113 113 113 113 114 114 114 114 113 113 113 113 115 115 115 115 114 114 114 114 116 116 116 116 117 117 117 117 118 118 118 118 117 117 117 117 119 119 119 119 118 118 118 118 120 120 120 120 121 121 121 121 122 122 122 122 121 121 121 121 123 123 123 123 122 122 122 122 124 124 124 124 125 125 125 125 126 126 126 126 125 125 125 125 127 127 127 127 126 126 126 126 128 128 128 128 129 129 129 129 130 130 130 130 129 129 129 129 131 131 131 131 130 130 130 130 132 132 132 132 133 133 133 133 134 134 134 134 133 133 133 133 135 135 135 135 134 134 134 134 136 136 136 136 137 137 137 137 138 138 138 138 137 137 137 137 139 139 139 139 138 138 138 138 140 140 140 140 141 141 141 141 142 142 142 142 141 141 141 141 143 143 143 143 142 142 142 142 144 144 144 144 145 145 145 145 146 146 146 146 145 145 145 145 147 147 147 147 146 146 146 146 148 148 148 148 149 149 149 149 150 150 150 150 149 149 149 149 151 151 151 151 150 150 150 150 152 152 152 152 153 153 153 153 154 154 154 154 153 153 153 153 155 155 155 155 154 154 154 154 156 156 156 156 157 157 157 157 158 158 158 158 157 157 157 157 159 159 159 159 158 158 158 158 160 160 160 160 161 161 161 161 162 162 162 162 161 161 161 161 163 163 163 163 162 162 162 162 164 164 164 164 165 165 165 165 166 166 166 166 165 165 165 165 167 167 167 167 166 166 166 166 168 168 168 168 169 169 169 169 170 170 170 170 169 169 169 169 171 171 171 171 170 170 170 170 172 172 172 172 173 173 173 173 174 174 174 174 173 173 173 173 175 175 175 175 174 174 174 174 176 176 176 176 177 177 177 177 178 178 178 178 177 177 177 177 179 179 179 179 178 178 178 178 180 180 180 180 181 181 181 181 182 182 182 182 181 181 181 181 183 183 183 183 182 182 182 182 184 184 184 184 185 185 185 185 186 186 186 186 185 185 185 185 187 187 187 187 186 186 186 186 </p>
        </triangles>
      </mesh>
    </geometry>
    <geometry id="pCube18__CmFillerObjectF_TapeC-mesh" name="pCube18__CmFillerObjectF_TapeC">
      <mesh>
        <source id="pCube18__CmFillerObjectF_TapeC-position">
          <float_array id="pCube18__CmFillerObjectF_TapeC-position-array" count="384">-0.9693806 0.208497 0.9456943 -0.9406701 0.208497 0.9744052 -0.9693806 1.40313 0.9456943 -0.9406701 1.40313 0.9744052 0.9537581 0.09849715 0.9744052 0.9824682 0.09849715 0.9456943 0.9537581 1.26313 0.9744052 0.9824682 1.26313 0.9456943 -0.9406701 1.44313 -0.9715024 -0.9406701 0.3284969 -0.9715024 -0.9693806 1.33313 -0.9427915 -0.9693806 0.3284969 -0.9427915 0.9537581 1.44313 -0.9715024 0.9824682 1.44313 -0.9427915 0.9537581 0.138497 -0.9715024 0.9824682 0.138497 -0.9427915 -0.9406701 1.44313 -0.9715024 -0.9406701 0.3284969 -0.9715024 0.9537581 2.847412 0.9744052 0.9537581 1.631624 0.9744052 0.9824682 2.847412 0.9456943 0.9824682 1.631624 0.9456943 -0.9406701 1.631624 0.9744052 -0.9406701 2.847412 0.9744052 -0.9693806 1.631624 0.9456943 -0.9693806 2.847412 0.9456943 -0.9693806 1.521623 -0.9427915 -0.9693806 2.597412 -0.9427915 -0.9406701 1.521623 -0.9715024 -0.9406701 2.597412 -0.9715024 0.9537581 1.521623 -0.9715024 -0.9406701 1.521623 -0.9715024 0.9537581 2.597412 -0.9715024 -0.9406701 2.597412 -0.9715024 0.9824682 1.521623 -0.9427915 0.9824682 2.597412 -0.9427915 -0.7935286 2.986247 -0.9565385 -0.7935286 3.01494 -0.9278449 0.6566311 2.986247 -0.9565385 0.6566311 3.01494 -0.9278449 0.878414 3.01494 0.9278449 0.6566311 3.01494 -0.9278449 -0.6512912 3.01494 0.9278449 -0.7935286 3.01494 -0.9278449 -0.6512912 3.01494 0.9278449 -0.6512912 2.986247 0.956538 0.878414 3.01494 0.9278449 0.878414 2.986247 0.956538 -0.8776794 0.02965212 0.956538 0.6249867 0.02965212 0.956538 -0.6512912 2.986247 0.956538 0.878414 2.986247 0.956538 -0.8776794 0.02965212 0.956538 -0.8776794 0.0009590387 0.9278449 0.6249867 0.02965212 0.956538 0.6249867 0.0009590387 0.9278449 -0.8835179 0.0009590387 -0.9278449 -0.8835179 0.02965212 -0.9565385 0.6490847 0.0009590387 -0.9278449 0.6490847 0.02965212 -0.9565385 -0.8835179 0.02965212 -0.9565385 -0.7935286 2.986247 -0.9565385 0.6490847 0.02965212 -0.9565385 0.6566311 2.986247 -0.9565385 -0.9693806 0.208497 0.9456943 -0.9406701 0.208497 0.9744052 -0.9693806 1.40313 0.9456943 -0.9406701 1.40313 0.9744052 0.9537581 0.09849715 0.9744052 0.9824682 0.09849715 0.9456943 0.9537581 1.26313 0.9744052 0.9824682 1.26313 0.9456943 -0.9693806 1.33313 -0.9427915 -0.9693806 0.3284969 -0.9427915 0.9537581 1.44313 -0.9715024 0.9824682 1.44313 -0.9427915 0.9537581 0.138497 -0.9715024 0.9824682 0.138497 -0.9427915 0.9537581 2.847412 0.9744052 0.9537581 1.631624 0.9744052 0.9824682 2.847412 0.9456943 0.9824682 1.631624 0.9456943 -0.9406701 1.631624 0.9744052 -0.9406701 2.847412 0.9744052 -0.9693806 1.631624 0.9456943 -0.9693806 2.847412 0.9456943 -0.9693806 1.521623 -0.9427915 -0.9693806 2.597412 -0.9427915 0.9537581 1.521623 -0.9715024 0.9537581 2.597412 -0.9715024 0.9824682 1.521623 -0.9427915 0.9824682 2.597412 -0.9427915 -0.8776794 0.0009590387 0.9278449 0.6249867 0.0009590387 0.9278449 -0.8835179 0.0009590387 -0.9278449 0.6490847 0.0009590387 -0.9278449 -0.9406701 1.44313 -0.9715024 -0.9406701 1.44313 -0.9715024 -0.9406701 0.3284969 -0.9715024 -0.9406701 0.3284969 -0.9715024 -0.9406701 1.521623 -0.9715024 -0.9406701 1.521623 -0.9715024 -0.9406701 2.597412 -0.9715024 -0.9406701 2.597412 -0.9715024 -0.7935286 2.986247 -0.9565385 -0.7935286 2.986247 -0.9565385 -0.7935286 3.01494 -0.9278449 -0.7935286 3.01494 -0.9278449 0.6566311 2.986247 -0.9565385 0.6566311 2.986247 -0.9565385 0.6566311 3.01494 -0.9278449 0.6566311 3.01494 -0.9278449 0.878414 3.01494 0.9278449 0.878414 3.01494 0.9278449 -0.6512912 3.01494 0.9278449 -0.6512912 3.01494 0.9278449 -0.6512912 2.986247 0.956538 -0.6512912 2.986247 0.956538 0.878414 2.986247 0.956538 0.878414 2.986247 0.956538 -0.8776794 0.02965212 0.956538 -0.8776794 0.02965212 0.956538 0.6249867 0.02965212 0.956538 0.6249867 0.02965212 0.956538 -0.8835179 0.02965212 -0.9565385 -0.8835179 0.02965212 -0.9565385 0.6490847 0.02965212 -0.9565385 0.6490847 0.02965212 -0.9565385</float_array>
          <technique_common>
            <accessor source="#pCube18__CmFillerObjectF_TapeC-position-array" count="128" stride="3">
              <param name="X" type="float" />
              <param name="Y" type="float" />
              <param name="Z" type="float" />
            </accessor>
          </technique_common>
        </source>
        <source id="pCube18__CmFillerObjectF_TapeC-normal">
          <float_array id="pCube18__CmFillerObjectF_TapeC-normal-array" count="384">-1 0 0.01761252 -0.01369863 0 1 -1 0 0.01565558 -0.01565558 0 1 0.01565558 0 1 1 0 0.01369863 0.01369863 0 1 1 0 0.01369863 -0.003913894 0 -1 -0.01174168 0 -1 -1 0 -0.02544031 -1 0 -0.01369863 0.01565558 0 -1 1 0 -0.01761252 0.01761252 0 -1 1 0 -0.01565558 -0.003913894 0 -1 -0.01174168 0 -1 0.01565558 0 1 0.01565558 0 1 1 0 0.01761252 1 0 0.01565558 -0.01565558 0 1 -0.01565558 0 1 -1 0 0.01565558 -1 0 0.01761252 -1 0 -0.01369863 -1 0 -0.01369863 -0.01565558 0 -1 -0.01565558 0 -1 0.01565558 0 -1 -0.01565558 0 -1 0.01565558 0 -1 -0.01565558 0 -1 1 0 -0.01369863 1 0 -0.01369863 0 0.7064579 -0.7064579 0 0.7064579 -0.7064579 0 0.7064579 -0.7064579 0 0.7064579 -0.7064579 0 1 0 0 1 0 0 1 0 0 1 0 0 0.7064579 0.7064579 0 0.7064579 0.7064579 0 0.7064579 0.7064579 0 0.7064579 0.7064579 0 0 1 0 0 1 0 0 1 0 0 1 0 -0.7064579 0.7064579 0 -0.7064579 0.7064579 0 -0.7064579 0.7064579 0 -0.7064579 0.7064579 0 -0.7064579 -0.7064579 0 -0.7064579 -0.7064579 0 -0.7064579 -0.7064579 0 -0.7064579 -0.7064579 0 0 -1 0 0 -1 0 0 -1 0 0 -1 -1 0 0.01565558 -0.01369863 0 1 -1 0 0.01565558 -0.01565558 0 1 0.01565558 0 1 1 0 0.01565558 0.01369863 0 1 1 0 0.01369863 -1 0 -0.02739726 -1 0 -0.01369863 0.01565558 0 -1 1 0 -0.01565558 0.01565558 0 -1 1 0 -0.01565558 0.01565558 0 1 0.01565558 0 1 1 0 0.01565558 1 0 0.01565558 -0.01565558 0 1 -0.01565558 0 1 -1 0 0.01565558 -1 0 0.01565558 -1 0 -0.01565558 -1 0 -0.01369863 0.01565558 0 -1 0.01565558 0 -1 1 0 -0.01565558 1 0 -0.01369863 0 -0.7064579 0.7064579 0 -0.7064579 0.7064579 0 -0.7064579 -0.7064579 0 -0.7064579 -0.7064579 -0.003913894 0 -1 -0.003913894 0 -1 -0.01174168 0 -1 -0.01174168 0 -1 -0.01565558 0 -1 -0.01565558 0 -1 -0.01565558 0 -1 -0.01565558 0 -1 0 0.7064579 -0.7064579 0 0 -1 0 0.7064579 -0.7064579 0 1 0 0 0.7064579 -0.7064579 0 0 -1 0 0.7064579 -0.7064579 0 1 0 0 1 0 0 0.7064579 0.7064579 0 1 0 0 0.7064579 0.7064579 0 0.7064579 0.7064579 0 0 1 0 0.7064579 0.7064579 0 0 1 0 0 1 0 -0.7064579 0.7064579 0 0 1 0 -0.7064579 0.7064579 0 -0.7064579 -0.7064579 0 0 -1 0 -0.7064579 -0.7064579 0 0 -1</float_array>
          <technique_common>
            <accessor source="#pCube18__CmFillerObjectF_TapeC-normal-array" count="128" stride="3">
              <param name="X" type="float" />
              <param name="Y" type="float" />
              <param name="Z" type="float" />
            </accessor>
          </technique_common>
        </source>
        <source id="pCube18__CmFillerObjectF_TapeC-color">
          <float_array id="pCube18__CmFillerObjectF_TapeC-color-array" count="512">0.1490196 0.345098 0.345098 1 0.1490196 0.345098 0.345098 1 0.1490196 0.345098 0.345098 1 0.1490196 0.345098 0.345098 1 0.1490196 0.345098 0.345098 1 0.1490196 0.345098 0.345098 1 0.1490196 0.345098 0.345098 1 0.1490196 0.345098 0.345098 1 0.1490196 0.345098 0.345098 1 0.1490196 0.345098 0.345098 1 0.1490196 0.345098 0.345098 1 0.1490196 0.345098 0.345098 1 0.1490196 0.345098 0.345098 1 0.1490196 0.345098 0.345098 1 0.1490196 0.345098 0.345098 1 0.1490196 0.345098 0.345098 1 0.1490196 0.345098 0.345098 1 0.1490196 0.345098 0.345098 1 0.1490196 0.345098 0.345098 1 0.1490196 0.345098 0.345098 1 0.1490196 0.345098 0.345098 1 0.1490196 0.345098 0.345098 1 0.1490196 0.345098 0.345098 1 0.1490196 0.345098 0.345098 1 0.1490196 0.345098 0.345098 1 0.1490196 0.345098 0.345098 1 0.1490196 0.345098 0.345098 1 0.1490196 0.345098 0.345098 1 0.1490196 0.345098 0.345098 1 0.1490196 0.345098 0.345098 1 0.1490196 0.345098 0.345098 1 0.1490196 0.345098 0.345098 1 0.1490196 0.345098 0.345098 1 0.1490196 0.345098 0.345098 1 0.1490196 0.345098 0.345098 1 0.1490196 0.345098 0.345098 1 0.1490196 0.345098 0.345098 1 0.1490196 0.345098 0.345098 1 0.1490196 0.345098 0.345098 1 0.1490196 0.345098 0.345098 1 0.1490196 0.345098 0.345098 1 0.1490196 0.345098 0.345098 1 0.1490196 0.345098 0.345098 1 0.1490196 0.345098 0.345098 1 0.1490196 0.345098 0.345098 1 0.1490196 0.345098 0.345098 1 0.1490196 0.345098 0.345098 1 0.1490196 0.345098 0.345098 1 0.1490196 0.345098 0.345098 1 0.1490196 0.345098 0.345098 1 0.1490196 0.345098 0.345098 1 0.1490196 0.345098 0.345098 1 0.1490196 0.345098 0.345098 1 0.1490196 0.345098 0.345098 1 0.1490196 0.345098 0.345098 1 0.1490196 0.345098 0.345098 1 0.1490196 0.345098 0.345098 1 0.1490196 0.345098 0.345098 1 0.1490196 0.345098 0.345098 1 0.1490196 0.345098 0.345098 1 0.1490196 0.345098 0.345098 1 0.1490196 0.345098 0.345098 1 0.1490196 0.345098 0.345098 1 0.1490196 0.345098 0.345098 1 0.1490196 0.345098 0.345098 1 0.1490196 0.345098 0.345098 1 0.1490196 0.345098 0.345098 1 0.1490196 0.345098 0.345098 1 0.1490196 0.345098 0.345098 1 0.1490196 0.345098 0.345098 1 0.1490196 0.345098 0.345098 1 0.1490196 0.345098 0.345098 1 0.1490196 0.345098 0.345098 1 0.1490196 0.345098 0.345098 1 0.1490196 0.345098 0.345098 1 0.1490196 0.345098 0.345098 1 0.1490196 0.345098 0.345098 1 0.1490196 0.345098 0.345098 1 0.1490196 0.345098 0.345098 1 0.1490196 0.345098 0.345098 1 0.1490196 0.345098 0.345098 1 0.1490196 0.345098 0.345098 1 0.1490196 0.345098 0.345098 1 0.1490196 0.345098 0.345098 1 0.1490196 0.345098 0.345098 1 0.1490196 0.345098 0.345098 1 0.1490196 0.345098 0.345098 1 0.1490196 0.345098 0.345098 1 0.1490196 0.345098 0.345098 1 0.1490196 0.345098 0.345098 1 0.1490196 0.345098 0.345098 1 0.1490196 0.345098 0.345098 1 0.1490196 0.345098 0.345098 1 0.1490196 0.345098 0.345098 1 0.1490196 0.345098 0.345098 1 0.1490196 0.345098 0.345098 1 0.1490196 0.345098 0.345098 1 0.1490196 0.345098 0.345098 1 0.1490196 0.345098 0.345098 1 0.1490196 0.345098 0.345098 1 0.1490196 0.345098 0.345098 1 0.1490196 0.345098 0.345098 1 0.1490196 0.345098 0.345098 1 0.1490196 0.345098 0.345098 1 0.1490196 0.345098 0.345098 1 0.1490196 0.345098 0.345098 1 0.1490196 0.345098 0.345098 1 0.1490196 0.345098 0.345098 1 0.1490196 0.345098 0.345098 1 0.1490196 0.345098 0.345098 1 0.1490196 0.345098 0.345098 1 0.1490196 0.345098 0.345098 1 0.1490196 0.345098 0.345098 1 0.1490196 0.345098 0.345098 1 0.1490196 0.345098 0.345098 1 0.1490196 0.345098 0.345098 1 0.1490196 0.345098 0.345098 1 0.1490196 0.345098 0.345098 1 0.1490196 0.345098 0.345098 1 0.1490196 0.345098 0.345098 1 0.1490196 0.345098 0.345098 1 0.1490196 0.345098 0.345098 1 0.1490196 0.345098 0.345098 1 0.1490196 0.345098 0.345098 1 0.1490196 0.345098 0.345098 1 0.1490196 0.345098 0.345098 1 0.1490196 0.345098 0.345098 1 0.1490196 0.345098 0.345098 1</float_array>
          <technique_common>
            <accessor source="#pCube18__CmFillerObjectF_TapeC-color-array" count="128" stride="4">
              <param name="R" type="float" />
              <param name="G" type="float" />
              <param name="B" type="float" />
              <param name="A" type="float" />
            </accessor>
          </technique_common>
        </source>
        <source id="pCube18__CmFillerObjectF_TapeC-texcoord">
          <float_array id="pCube18__CmFillerObjectF_TapeC-texcoord-array" count="256">0.2024414 0.3736324 0.2064088 0.3736324 0.2024414 0.4937209 0.2064088 0.4937209 0.3877318 0.3736324 0.3916991 0.3736324 0.3877318 0.4937209 0.3916991 0.4937209 0.01715114 0.4937209 0.01715114 0.3736324 0.02111849 0.4937209 0.02111849 0.3736324 0.5769894 0.4937209 0.5730221 0.4937209 0.5769894 0.3736324 0.5730221 0.3736324 0.7583123 0.4937209 0.7583123 0.3736324 0.393637 0.8039063 0.393637 0.6986343 0.3975738 0.8039063 0.3976043 0.6986343 0.2123293 0.6986343 0.2123293 0.8039063 0.2083619 0.6986343 0.2083772 0.8039063 0.02728313 0.6986343 0.02728313 0.8039063 0.02333104 0.6986343 0.02333104 0.8039063 0.5829251 0.6986343 0.7644465 0.6986343 0.5829099 0.8039063 0.7644465 0.8039063 0.5789578 0.6986343 0.5789883 0.8039063 0.4902266 0.6671245 0.4862898 0.6671245 0.4902266 0.5196765 0.4862898 0.5196765 0.3061723 0.5196765 0.4862898 0.5196765 0.3061723 0.6671245 0.4862898 0.6671245 0.3061723 0.6671245 0.3022355 0.6671245 0.3061723 0.5196765 0.3022355 0.5196765 0.01527428 0.6671245 0.01527428 0.5196765 0.3022355 0.6671245 0.3022355 0.5196765 0.01527428 0.6671245 0.01133745 0.6671245 0.01527428 0.5196765 0.01133745 0.5196765 0.7811246 0.6671245 0.7771878 0.6671245 0.7811246 0.5196765 0.7771878 0.5196765 0.7771878 0.6671245 0.4902266 0.6671245 0.7771878 0.5196765 0.4902266 0.5196765 0.2024414 0.3739986 0.2064088 0.3739986 0.2024414 0.4937209 0.2064088 0.4937209 0.3877318 0.3739986 0.3916991 0.3739986 0.3877318 0.4937209 0.3916991 0.4937209 0.02111849 0.4937209 0.02111849 0.3739986 0.5769894 0.4937209 0.5730221 0.4937209 0.5769894 0.3739986 0.5730221 0.3739986 0.393637 0.8039063 0.393637 0.6986343 0.3975738 0.8039063 0.3976043 0.6986343 0.2123293 0.6986343 0.2123293 0.8039063 0.2083619 0.6986343 0.2083772 0.8039063 0.02728313 0.6986343 0.02728313 0.8039063 0.5829251 0.6986343 0.5829099 0.8039063 0.5789578 0.6986343 0.5789883 0.8039063 0.01133745 0.6671245 0.01133745 0.5196765 0.7810025 0.6671245 0.7810025 0.5196765 0.01715114 0.4937209 0.7583123 0.4937209 0.01715114 0.3739986 0.7583123 0.3739986 0.02333104 0.6986343 0.7644465 0.6986343 0.02333104 0.8039063 0.7644465 0.8039063 0.4902266 0.6671245 0.4902266 0.6671245 0.4862898 0.6671245 0.4862898 0.6671245 0.4902266 0.5196765 0.4902266 0.5196765 0.4862898 0.5196765 0.4862898 0.5196765 0.3061723 0.5196765 0.3061723 0.5196765 0.3061723 0.6671245 0.3061723 0.6671245 0.3022355 0.6671245 0.3022355 0.6671245 0.3022355 0.5196765 0.3022355 0.5196765 0.01527428 0.6671245 0.01527428 0.6671245 0.01527428 0.5196765 0.01527428 0.5196765 0.7771878 0.6671245 0.7771878 0.6671245 0.7771878 0.5196765 0.7771878 0.5196765</float_array>
          <technique_common>
            <accessor source="#pCube18__CmFillerObjectF_TapeC-texcoord-array" count="128" stride="2">
              <param name="S" type="float" />
              <param name="T" type="float" />
            </accessor>
          </technique_common>
        </source>
        <vertices id="pCube18__CmFillerObjectF_TapeC-vertex">
          <input semantic="POSITION" source="#pCube18__CmFillerObjectF_TapeC-position" />
        </vertices>
        <triangles material="CmFillerObjectF_TapeC" count="46">
          <input semantic="VERTEX" source="#pCube18__CmFillerObjectF_TapeC-vertex" offset="0" />
          <input semantic="NORMAL" source="#pCube18__CmFillerObjectF_TapeC-normal" offset="1" />
          <input semantic="COLOR" source="#pCube18__CmFillerObjectF_TapeC-color" offset="2" set="0" />
          <input semantic="TEXCOORD" source="#pCube18__CmFillerObjectF_TapeC-texcoord" offset="3" set="0" />
          <p>0 0 0 0 1 1 1 1 2 2 2 2 1 1 1 1 3 3 3 3 2 2 2 2 4 4 4 4 5 5 5 5 6 6 6 6 5 5 5 5 7 7 7 7 6 6 6 6 8 8 8 8 9 9 9 9 10 10 10 10 9 9 9 9 11 11 11 11 10 10 10 10 12 12 12 12 13 13 13 13 14 14 14 14 13 13 13 13 15 15 15 15 14 14 14 14 4 4 4 4 6 6 6 6 1 1 1 1 6 6 6 6 3 3 3 3 1 1 1 1 16 16 16 16 12 12 12 12 17 17 17 17 12 12 12 12 14 14 14 14 17 17 17 17 5 5 5 5 15 15 15 15 7 7 7 7 15 15 15 15 13 13 13 13 7 7 7 7 0 0 0 0 2 2 2 2 11 11 11 11 2 2 2 2 10 10 10 10 11 11 11 11 18 18 18 18 19 19 19 19 20 20 20 20 19 19 19 19 21 21 21 21 20 20 20 20 22 22 22 22 19 19 19 19 23 23 23 23 19 19 19 19 18 18 18 18 23 23 23 23 24 24 24 24 22 22 22 22 25 25 25 25 22 22 22 22 23 23 23 23 25 25 25 25 26 26 26 26 24 24 24 24 27 27 27 27 24 24 24 24 25 25 25 25 27 27 27 27 28 28 28 28 26 26 26 26 29 29 29 29 26 26 26 26 27 27 27 27 29 29 29 29 30 30 30 30 31 31 31 31 32 32 32 32 31 31 31 31 33 33 33 33 32 32 32 32 34 34 34 34 30 30 30 30 35 35 35 35 30 30 30 30 32 32 32 32 35 35 35 35 34 34 34 34 35 35 35 35 21 21 21 21 35 35 35 35 20 20 20 20 21 21 21 21 36 36 36 36 37 37 37 37 38 38 38 38 37 37 37 37 39 39 39 39 38 38 38 38 40 40 40 40 41 41 41 41 42 42 42 42 41 41 41 41 43 43 43 43 42 42 42 42 44 44 44 44 45 45 45 45 46 46 46 46 45 45 45 45 47 47 47 47 46 46 46 46 48 48 48 48 49 49 49 49 50 50 50 50 49 49 49 49 51 51 51 51 50 50 50 50 52 52 52 52 53 53 53 53 54 54 54 54 53 53 53 53 55 55 55 55 54 54 54 54 56 56 56 56 57 57 57 57 58 58 58 58 57 57 57 57 59 59 59 59 58 58 58 58 60 60 60 60 61 61 61 61 62 62 62 62 61 61 61 61 63 63 63 63 62 62 62 62 </p>
        </triangles>
      </mesh>
    </geometry>
  </library_geometries>
  <library_controllers>
    <controller id="Armature_CollisionM__CollisionC-mesh">
      <skin source="#CollisionM__CollisionC-mesh">
        <bind_shape_matrix>1 0 0 0 0 1 0 0 0 0 1 0 0 0 0 1</bind_shape_matrix>
        <source id="CollisionM__CollisionC-mesh-joint">
          <Name_array id="CollisionM__CollisionC-mesh-joint-array" count="1">CmFillerObjectFL</Name_array>
          <technique_common>
            <accessor source="#CollisionM__CollisionC-mesh-joint-array" count="1" stride="1">
              <param name="JOINT" type="name" />
            </accessor>
          </technique_common>
        </source>
        <source id="CollisionM__CollisionC-mesh-inv_bind_matrix">
          <float_array id="CollisionM__CollisionC-mesh-inv_bind_matrix-array" count="16">1 0 0 0 0 1 0 0 0 0 1 0 0 0 0 1</float_array>
          <technique_common>
            <accessor source="#CollisionM__CollisionC-mesh-inv_bind_matrix-array" count="1" stride="16">
              <param name="TRANSFORM" type="float4x4" />
            </accessor>
          </technique_common>
        </source>
        <source id="CollisionM__CollisionC-mesh-weight">
          <float_array id="CollisionM__CollisionC-mesh-weight-array" count="1">1</float_array>
          <technique_common>
            <accessor source="#CollisionM__CollisionC-mesh-weight-array" count="1" stride="1">
              <param name="WEIGHT" type="float" />
            </accessor>
          </technique_common>
        </source>
        <joints>
          <input semantic="JOINT" source="#CollisionM__CollisionC-mesh-joint" />
          <input semantic="INV_BIND_MATRIX" source="#CollisionM__CollisionC-mesh-inv_bind_matrix" />
        </joints>
        <vertex_weights count="1">
          <input semantic="JOINT" source="#CollisionM__CollisionC-mesh-joint" offset="0" />
          <input semantic="WEIGHT" source="#CollisionM__CollisionC-mesh-weight" offset="1" />
          <vcount>1 </vcount>
          <v>0 0 </v>
        </vertex_weights>
      </skin>
    </controller>
    <controller id="Armature_pCube17__CmFillerObjectFC-mesh">
      <skin source="#pCube17__CmFillerObjectFC-mesh">
        <bind_shape_matrix>1 0 0 0 0 1 0 0 0 0 1 0 0 0 0 1</bind_shape_matrix>
        <source id="pCube17__CmFillerObjectFC-mesh-joint">
          <Name_array id="pCube17__CmFillerObjectFC-mesh-joint-array" count="1">CmFillerObjectFL</Name_array>
          <technique_common>
            <accessor source="#pCube17__CmFillerObjectFC-mesh-joint-array" count="1" stride="1">
              <param name="JOINT" type="name" />
            </accessor>
          </technique_common>
        </source>
        <source id="pCube17__CmFillerObjectFC-mesh-inv_bind_matrix">
          <float_array id="pCube17__CmFillerObjectFC-mesh-inv_bind_matrix-array" count="16">1 0 0 0 0 1 0 0 0 0 1 0 0 0 0 1</float_array>
          <technique_common>
            <accessor source="#pCube17__CmFillerObjectFC-mesh-inv_bind_matrix-array" count="1" stride="16">
              <param name="TRANSFORM" type="float4x4" />
            </accessor>
          </technique_common>
        </source>
        <source id="pCube17__CmFillerObjectFC-mesh-weight">
          <float_array id="pCube17__CmFillerObjectFC-mesh-weight-array" count="1">1</float_array>
          <technique_common>
            <accessor source="#pCube17__CmFillerObjectFC-mesh-weight-array" count="1" stride="1">
              <param name="WEIGHT" type="float" />
            </accessor>
          </technique_common>
        </source>
        <joints>
          <input semantic="JOINT" source="#pCube17__CmFillerObjectFC-mesh-joint" />
          <input semantic="INV_BIND_MATRIX" source="#pCube17__CmFillerObjectFC-mesh-inv_bind_matrix" />
        </joints>
        <vertex_weights count="276">
          <input semantic="JOINT" source="#pCube17__CmFillerObjectFC-mesh-joint" offset="0" />
          <input semantic="WEIGHT" source="#pCube17__CmFillerObjectFC-mesh-weight" offset="1" />
          <vcount>1 1 1 1 1 1 1 1 1 1 1 1 1 1 1 1 1 1 1 1 1 1 1 1 1 1 1 1 1 1 1 1 1 1 1 1 1 1 1 1 1 1 1 1 1 1 1 1 1 1 1 1 1 1 1 1 1 1 1 1 1 1 1 1 1 1 1 1 1 1 1 1 1 1 1 1 1 1 1 1 1 1 1 1 1 1 1 1 1 1 1 1 1 1 1 1 1 1 1 1 1 1 1 1 1 1 1 1 1 1 1 1 1 1 1 1 1 1 1 1 1 1 1 1 1 1 1 1 1 1 1 1 1 1 1 1 1 1 1 1 1 1 1 1 1 1 1 1 1 1 1 1 1 1 1 1 1 1 1 1 1 1 1 1 1 1 1 1 1 1 1 1 1 1 1 1 1 1 1 1 1 1 1 1 1 1 1 1 1 1 1 1 1 1 1 1 1 1 1 1 1 1 1 1 1 1 1 1 1 1 1 1 1 1 1 1 1 1 1 1 1 1 1 1 1 1 1 1 1 1 1 1 1 1 1 1 1 1 1 1 1 1 1 1 1 1 1 1 1 1 1 1 1 1 1 1 1 1 1 1 1 1 1 1 1 1 1 1 1 1 1 1 1 1 1 1 </vcount>
          <v>0 0 0 0 0 0 0 0 0 0 0 0 0 0 0 0 0 0 0 0 0 0 0 0 0 0 0 0 0 0 0 0 0 0 0 0 0 0 0 0 0 0 0 0 0 0 0 0 0 0 0 0 0 0 0 0 0 0 0 0 0 0 0 0 0 0 0 0 0 0 0 0 0 0 0 0 0 0 0 0 0 0 0 0 0 0 0 0 0 0 0 0 0 0 0 0 0 0 0 0 0 0 0 0 0 0 0 0 0 0 0 0 0 0 0 0 0 0 0 0 0 0 0 0 0 0 0 0 0 0 0 0 0 0 0 0 0 0 0 0 0 0 0 0 0 0 0 0 0 0 0 0 0 0 0 0 0 0 0 0 0 0 0 0 0 0 0 0 0 0 0 0 0 0 0 0 0 0 0 0 0 0 0 0 0 0 0 0 0 0 0 0 0 0 0 0 0 0 0 0 0 0 0 0 0 0 0 0 0 0 0 0 0 0 0 0 0 0 0 0 0 0 0 0 0 0 0 0 0 0 0 0 0 0 0 0 0 0 0 0 0 0 0 0 0 0 0 0 0 0 0 0 0 0 0 0 0 0 0 0 0 0 0 0 0 0 0 0 0 0 0 0 0 0 0 0 0 0 0 0 0 0 0 0 0 0 0 0 0 0 0 0 0 0 0 0 0 0 0 0 0 0 0 0 0 0 0 0 0 0 0 0 0 0 0 0 0 0 0 0 0 0 0 0 0 0 0 0 0 0 0 0 0 0 0 0 0 0 0 0 0 0 0 0 0 0 0 0 0 0 0 0 0 0 0 0 0 0 0 0 0 0 0 0 0 0 0 0 0 0 0 0 0 0 0 0 0 0 0 0 0 0 0 0 0 0 0 0 0 0 0 0 0 0 0 0 0 0 0 0 0 0 0 0 0 0 0 0 0 0 0 0 0 0 0 0 0 0 0 0 0 0 0 0 0 0 0 0 0 0 0 0 0 0 0 0 0 0 0 0 0 0 0 0 0 0 0 0 0 0 0 0 0 0 0 0 0 0 0 0 0 0 0 0 0 0 0 0 0 0 0 0 0 0 0 0 0 0 0 0 0 0 0 0 0 0 0 0 0 0 0 0 0 0 0 0 0 0 0 0 0 0 0 0 0 0 0 0 0 0 0 0 0 0 0 0 0 0 0 0 0 0 0 0 0 0 0 0 0 0 0 0 0 0 0 0 0 0 0 0 0 0 0 0 0 0 0 0 0 0 0 0 </v>
        </vertex_weights>
      </skin>
    </controller>
    <controller id="Armature_pCube18__CmFillerObjectF_TapeC-mesh">
      <skin source="#pCube18__CmFillerObjectF_TapeC-mesh">
        <bind_shape_matrix>1 0 0 0 0 1 0 0 0 0 1 0 0 0 0 1</bind_shape_matrix>
        <source id="pCube18__CmFillerObjectF_TapeC-mesh-joint">
          <Name_array id="pCube18__CmFillerObjectF_TapeC-mesh-joint-array" count="1">CmFillerObjectFL</Name_array>
          <technique_common>
            <accessor source="#pCube18__CmFillerObjectF_TapeC-mesh-joint-array" count="1" stride="1">
              <param name="JOINT" type="name" />
            </accessor>
          </technique_common>
        </source>
        <source id="pCube18__CmFillerObjectF_TapeC-mesh-inv_bind_matrix">
          <float_array id="pCube18__CmFillerObjectF_TapeC-mesh-inv_bind_matrix-array" count="16">1 0 0 0 0 1 0 0 0 0 1 0 0 0 0 1</float_array>
          <technique_common>
            <accessor source="#pCube18__CmFillerObjectF_TapeC-mesh-inv_bind_matrix-array" count="1" stride="16">
              <param name="TRANSFORM" type="float4x4" />
            </accessor>
          </technique_common>
        </source>
        <source id="pCube18__CmFillerObjectF_TapeC-mesh-weight">
          <float_array id="pCube18__CmFillerObjectF_TapeC-mesh-weight-array" count="1">1</float_array>
          <technique_common>
            <accessor source="#pCube18__CmFillerObjectF_TapeC-mesh-weight-array" count="1" stride="1">
              <param name="WEIGHT" type="float" />
            </accessor>
          </technique_common>
        </source>
        <joints>
          <input semantic="JOINT" source="#pCube18__CmFillerObjectF_TapeC-mesh-joint" />
          <input semantic="INV_BIND_MATRIX" source="#pCube18__CmFillerObjectF_TapeC-mesh-inv_bind_matrix" />
        </joints>
        <vertex_weights count="128">
          <input semantic="JOINT" source="#pCube18__CmFillerObjectF_TapeC-mesh-joint" offset="0" />
          <input semantic="WEIGHT" source="#pCube18__CmFillerObjectF_TapeC-mesh-weight" offset="1" />
          <vcount>1 1 1 1 1 1 1 1 1 1 1 1 1 1 1 1 1 1 1 1 1 1 1 1 1 1 1 1 1 1 1 1 1 1 1 1 1 1 1 1 1 1 1 1 1 1 1 1 1 1 1 1 1 1 1 1 1 1 1 1 1 1 1 1 1 1 1 1 1 1 1 1 1 1 1 1 1 1 1 1 1 1 1 1 1 1 1 1 1 1 1 1 1 1 1 1 1 1 1 1 1 1 1 1 1 1 1 1 1 1 1 1 1 1 1 1 1 1 1 1 1 1 1 1 1 1 1 1 </vcount>
          <v>0 0 0 0 0 0 0 0 0 0 0 0 0 0 0 0 0 0 0 0 0 0 0 0 0 0 0 0 0 0 0 0 0 0 0 0 0 0 0 0 0 0 0 0 0 0 0 0 0 0 0 0 0 0 0 0 0 0 0 0 0 0 0 0 0 0 0 0 0 0 0 0 0 0 0 0 0 0 0 0 0 0 0 0 0 0 0 0 0 0 0 0 0 0 0 0 0 0 0 0 0 0 0 0 0 0 0 0 0 0 0 0 0 0 0 0 0 0 0 0 0 0 0 0 0 0 0 0 0 0 0 0 0 0 0 0 0 0 0 0 0 0 0 0 0 0 0 0 0 0 0 0 0 0 0 0 0 0 0 0 0 0 0 0 0 0 0 0 0 0 0 0 0 0 0 0 0 0 0 0 0 0 0 0 0 0 0 0 0 0 0 0 0 0 0 0 0 0 0 0 0 0 0 0 0 0 0 0 0 0 0 0 0 0 0 0 0 0 0 0 0 0 0 0 0 0 0 0 0 0 0 0 0 0 0 0 0 0 0 0 0 0 0 0 0 0 0 0 0 0 0 0 0 0 0 0 </v>
        </vertex_weights>
      </skin>
    </controller>
  </library_controllers>
  <library_visual_scenes>
    <visual_scene id="Scene" name="Scene">
      <node id="Armature" name="Armature" type="NODE">
        <matrix sid="transform">1 0 0 0 0 1 0 0 0 0 1 0 0 0 0 1</matrix>
        <node id="Armature_CmFillerObjectFL" name="CmFillerObjectFL" sid="CmFillerObjectFL" type="JOINT">
          <matrix sid="transform">1 0 0 0 0 1 0 0 0 0 1 0 0 0 0 1</matrix>
        </node>
      </node>
      <node id="CollisionM__CollisionC" name="CollisionM__CollisionC" type="NODE">
        <instance_controller url="#Armature_CollisionM__CollisionC-mesh">
          <skeleton>#Armature_CmFillerObjectFL</skeleton>
          <bind_material>
            <technique_common>
              <instance_material symbol="CollisionC" target="#CollisionC" />
              <bind_vertex_input semantic="CHANNEL0" input_semantic="TEXCOORD" input_set="0" />
              <bind_vertex_input semantic="CHANNEL1" input_semantic="TEXCOORD" input_set="1" />
              <bind_vertex_input semantic="CHANNEL2" input_semantic="TEXCOORD" input_set="2" />
            </technique_common>
          </bind_material>
        </instance_controller>
      </node>
      <node id="pCube17__CmFillerObjectFC" name="pCube17__CmFillerObjectFC" type="NODE">
        <instance_controller url="#Armature_pCube17__CmFillerObjectFC-mesh">
          <skeleton>#Armature_CmFillerObjectFL</skeleton>
          <bind_material>
            <technique_common>
              <instance_material symbol="CmFillerObjectFC" target="#CmFillerObjectFC" />
              <bind_vertex_input semantic="CHANNEL0" input_semantic="TEXCOORD" input_set="0" />
              <bind_vertex_input semantic="CHANNEL1" input_semantic="TEXCOORD" input_set="1" />
              <bind_vertex_input semantic="CHANNEL2" input_semantic="TEXCOORD" input_set="2" />
            </technique_common>
          </bind_material>
        </instance_controller>
      </node>
      <node id="pCube18__CmFillerObjectF_TapeC" name="pCube18__CmFillerObjectF_TapeC" type="NODE">
        <instance_controller url="#Armature_pCube18__CmFillerObjectF_TapeC-mesh">
          <skeleton>#Armature_CmFillerObjectFL</skeleton>
          <bind_material>
            <technique_common>
              <instance_material symbol="CmFillerObjectF_TapeC" target="#CmFillerObjectF_TapeC" />
              <bind_vertex_input semantic="CHANNEL0" input_semantic="TEXCOORD" input_set="0" />
              <bind_vertex_input semantic="CHANNEL1" input_semantic="TEXCOORD" input_set="1" />
              <bind_vertex_input semantic="CHANNEL2" input_semantic="TEXCOORD" input_set="2" />
            </technique_common>
          </bind_material>
        </instance_controller>
      </node>
    </visual_scene>
  </library_visual_scenes>
  <scene>
    <instance_visual_scene url="#Scene" />
  </scene>
</COLLADA>